# xmcd
#
# Track frame offsets: 
#        150
#        15121
#        32172
#        46256
#        58677
#        72553
#        85334
#        98220
#        114655
#        130436
#        148400
#        161444
#        182195
#        198361
#        213434
#        224331
#        243448
#        260120
#        275659
#
# Disc length: 3912 seconds
#
# Revision: 0
# Processed by: cddbd v1.5.2PL0 Copyright (c) Steve Scherf et al.
# Submitted via: ExactAudioCopyFreeDBPlugin 1.0
#
DISCID=290f4613
DTITLE=Donna Dean - Money
DYEAR=2003
DGENRE=New Zealand: Country/Blues
TTITLE0=Work it Out
TTITLE1=He Deserves Somebody
TTITLE2=Rachel
TTITLE3=Money
TTITLE4=Lost in a Memory
TTITLE5=So Cold So Mean
TTITLE6=Don't Go Messin'
TTITLE7=Pictures
TTITLE8=Guitar Man
TTITLE9=Between You and Me
TTITLE10=Denny Says
TTITLE11=Last Train
TTITLE12=Big Moon
TTITLE13=Destination Life
TTITLE14=Listening to Angels
TTITLE15=Fly Away
TTITLE16=Write a Good Line
TTITLE17=Wanted to Fly
TTITLE18=A Little Faith
EXTD=
EXTT0=
EXTT1=
EXTT2=
EXTT3=
EXTT4=
EXTT5=
EXTT6=
EXTT7=
EXTT8=
EXTT9=
EXTT10=
EXTT11=
EXTT12=
EXTT13=
EXTT14=
EXTT15=
EXTT16=
EXTT17=
EXTT18=
PLAYORDER=
